<svg aria-hidden="true" xmlns="http://www.w3.org/2000/svg" xmlns:xlink="http://www.w3.org/1999/xlink"><symbol viewBox="0 0 14 14" id="close" xmlns="http://www.w3.org/2000/svg">
<path d="M1 1L13 12.944M13 1.05599L1 13" stroke-width="2" stroke-linecap="round" stroke-linejoin="round"/>
</symbol><symbol viewBox="0 0 24 24" id="eyeLock" xmlns="http://www.w3.org/2000/svg"><path d="M12 19.5c-5 0-9.3-3.1-11-7.5c1.7-4.4 6-7.5 11-7.5s9.3 3.1 11 7.5c-.1.4-.3.7-.5 1.1c-.5-1.2-1.5-2.2-2.8-2.7C17.9 8 15.1 6.5 12 6.5c-3.8 0-7.2 2.1-8.8 5.5c1.7 3.4 5.1 5.5 8.8 5.5h.1c-.1.2-.1.5-.1.7v1.3M12 9c-1.7 0-3 1.3-3 3s1.3 3 3 3c.4 0 .8-.1 1.2-.3v-.2c0-1.3.7-2.5 1.7-3.4C14.5 9.9 13.4 9 12 9m8.8 8h-4.3v-2.5c0-.8.7-1.3 1.5-1.3s1.5.5 1.5 1.3v.5h1.3v-.5c0-1.4-1.4-2.5-2.8-2.5s-2.8 1.1-2.8 2.5V17c-.6 0-1.2.6-1.2 1.2v3.5c0 .7.6 1.3 1.2 1.3h5.5c.7 0 1.3-.6 1.3-1.2v-3.5c0-.7-.6-1.3-1.2-1.3Z"/></symbol><symbol viewBox="0 0 15 15" id="eyeOpen" xmlns="http://www.w3.org/2000/svg"><path fill-rule="evenodd" d="M7.5 11c-2.697 0-4.97-1.378-6.404-3.5C2.53 5.378 4.803 4 7.5 4s4.97 1.378 6.404 3.5C12.47 9.622 10.197 11 7.5 11Zm0-8C4.308 3 1.656 4.706.076 7.235a.5.5 0 0 0 0 .53C1.656 10.294 4.308 12 7.5 12s5.844-1.706 7.424-4.235a.5.5 0 0 0 0-.53C13.344 4.706 10.692 3 7.5 3Zm0 6.5a2 2 0 1 0 0-4a2 2 0 0 0 0 4Z" clip-rule="evenodd"/></symbol><symbol viewBox="0 0 27 31" id="play" xmlns="http://www.w3.org/2000/svg">
<path d="M24.8296 12.0167C27.5411 13.5474 27.5411 17.4526 24.8296 18.9833L5.96637 29.6319C3.29989 31.1372 3.72183e-07 29.2106 3.35669e-07 26.1486L8.17023e-08 4.85141C4.51881e-08 1.78939 3.2999 -0.137154 5.96638 1.36812L24.8296 12.0167Z"/>
</symbol></svg>