<svg width="34" height="52" viewBox="0 0 34 52" fill="none" xmlns="http://www.w3.org/2000/svg">
<path d="M8 0C11.7369 4.45619e-08 15.4299 0.805527 18.8273 2.3617C22.2248 3.91787 25.2468 6.18811 27.6876 9.01774C30.1284 11.8474 31.9306 15.1699 32.9713 18.7589C34.0121 22.348 34.2669 26.1192 33.7185 29.8156C33.1701 33.512 31.8313 37.0468 29.7934 40.1791C27.7555 43.3114 25.0663 45.9676 21.9091 47.9667C18.752 49.9658 15.2009 51.2609 11.498 51.7636C7.79511 52.2664 4.02733 51.965 0.451406 50.8801L2.74814 43.3101C5.23606 44.0649 7.85745 44.2746 10.4337 43.9248C13.01 43.575 15.4806 42.674 17.6771 41.2831C19.8737 39.8922 21.7447 38.0442 23.1625 35.865C24.5804 33.6857 25.5118 31.2264 25.8934 28.6547C26.2749 26.0829 26.0976 23.4591 25.3735 20.9621C24.6495 18.4651 23.3956 16.1535 21.6975 14.1848C19.9993 12.2161 17.8967 10.6366 15.533 9.5539C13.1693 8.47121 10.5999 7.91077 8 7.91077V0Z" fill="#78CB36"/>
</svg>
