<svg width="202" height="185" viewBox="0 0 202 185" fill="none" xmlns="http://www.w3.org/2000/svg">
<path d="M201.298 97.1057C199.534 91.6754 194.721 87.8308 189.048 87.3172L111.685 80.2888L81.1104 8.65908C78.853 3.39652 73.7167 0 67.9997 0C62.2827 0 57.1443 3.39652 54.9013 8.65908L24.3267 80.2888L-53.0491 87.3172C-58.7212 87.841 -63.5242 91.6856 -65.299 97.1057C-67.0636 102.536 -65.4339 108.492 -61.1441 112.257L-2.66342 163.571L-19.9064 239.567C-21.168 245.155 -19.0006 250.933 -14.3673 254.285C-11.8769 256.096 -8.9509 257 -6.0147 257C-3.49153 257 -0.966316 256.329 1.289 254.978L67.9997 215.063L134.698 254.978C139.591 257.904 145.744 257.636 150.367 254.285C155 250.933 157.167 245.155 155.906 239.567L138.663 163.571L197.143 112.257C201.431 108.492 203.063 102.548 201.298 97.1057Z" fill="#3657CB" fill-opacity="0.1"/>
</svg>
