<svg width="167" height="173" viewBox="0 0 167 173" fill="none" xmlns="http://www.w3.org/2000/svg">
<path d="M12.8316 61.7862H-11.834C-15.2393 61.7862 -18.0005 64.5524 -18.0005 67.9649V166.821C-18.0005 170.233 -15.2397 173 -11.834 173H12.8312C16.2365 173 18.9977 170.234 18.9977 166.821V67.9645C18.9977 64.5524 16.2373 61.7862 12.8316 61.7862Z" fill="#1C243D"/>
<path d="M166.877 78.1636C165.789 68.579 156.854 61.7857 147.227 61.7857H99.1521C103.238 54.4555 105.431 33.7228 105.333 25.2535C105.172 11.2344 93.5854 0 79.5937 0H74.5054C71.0972 0 68.3389 2.76337 68.3389 6.17873C68.3389 20.4663 62.7866 46.255 52.315 56.7477C45.2668 63.8099 39.2415 66.3689 31.3407 70.3253V163.034C43.437 167.074 58.7954 173 82.2047 173H122.542C135.833 173 146.184 160.666 141.034 147.634C148.88 145.492 154.667 138.282 154.667 129.75C154.667 127.342 154.203 125.038 153.366 122.92C166.589 119.31 171.456 102.951 162.279 92.6785C165.651 88.9043 167.51 83.7418 166.877 78.1636Z" fill="#1C243D"/>
</svg>
