<svg width="207" height="206" viewBox="0 0 207 206" fill="none" xmlns="http://www.w3.org/2000/svg">
<path d="M166.547 41.279C155.158 28.847 139.532 22 122.542 22C109.843 22 98.2131 26.041 87.9744 34.0097C82.8081 38.0321 78.1269 42.9532 73.9995 48.697C69.8738 42.9549 65.1909 38.0321 60.0229 34.0097C49.7859 26.041 38.1559 22 25.4566 22C8.46713 22 -7.16107 28.847 -18.5495 41.279C-29.8019 53.5657 -36.0005 70.3513 -36.0005 88.5457C-36.0005 107.272 -29.0667 124.414 -14.1804 142.494C-0.863464 158.666 18.2761 175.083 40.4402 194.094C48.0085 200.586 56.5871 207.945 65.4947 215.783C67.8479 217.858 70.8675 219 73.9995 219C77.1299 219 80.1511 217.858 82.5009 215.787C91.4086 207.947 99.9922 200.584 107.564 194.089C129.725 175.082 148.864 158.666 162.181 142.492C177.067 124.414 184 107.272 184 88.544C184 70.3513 177.801 53.5657 166.547 41.279Z" fill="#1C243D"/>
<path d="M204.144 3.22948C202.28 1.14696 199.723 0 196.943 0C194.865 0 192.962 0.676911 191.286 2.01177C190.441 2.68557 189.675 3.50992 189 4.47209C188.324 3.51021 187.558 2.68557 186.712 2.01177C185.037 0.676911 183.134 0 181.056 0C178.276 0 175.719 1.14696 173.855 3.22948C172.014 5.28766 171 8.09945 171 11.1472C171 14.2842 172.134 17.1557 174.57 20.1842C176.749 22.8933 179.881 25.6434 183.508 28.8279C184.746 29.9154 186.15 31.1481 187.608 32.4612C187.993 32.8087 188.487 33 189 33C189.512 33 190.006 32.8087 190.391 32.4618C191.848 31.1484 193.253 29.9151 194.492 28.827C198.118 25.6431 201.25 22.8933 203.429 20.184C205.865 17.1557 207 14.2842 207 11.147C207 8.09945 205.985 5.28766 204.144 3.22948Z" fill="#1C243D"/>
</svg>
